<mxfile host="app.diagrams.net" modified="2024-05-20T06:00:01.053Z" agent="Mozilla/5.0 (Windows NT 10.0; Win64; x64) AppleWebKit/537.36 (KHTML, like Gecko) Chrome/125.0.0.0 Safari/537.36 Edg/125.0.0.0" etag="CKYM_unE1k5V8rYzPz-o" version="24.4.4" type="onedrive">
  <diagram name="Page-1" id="EljqaQDUs76aF9oUy_Ra">
    <mxGraphModel grid="1" page="1" gridSize="10" guides="1" tooltips="1" connect="1" arrows="1" fold="1" pageScale="1" pageWidth="850" pageHeight="1100" math="0" shadow="0">
      <root>
        <mxCell id="0" />
        <mxCell id="1" parent="0" />
        <mxCell id="AkPceBVPTyrZocjIqjfr-5" style="edgeStyle=orthogonalEdgeStyle;rounded=0;orthogonalLoop=1;jettySize=auto;html=1;entryX=0.5;entryY=0;entryDx=0;entryDy=0;" edge="1" parent="1" source="AkPceBVPTyrZocjIqjfr-1" target="AkPceBVPTyrZocjIqjfr-2">
          <mxGeometry relative="1" as="geometry" />
        </mxCell>
        <mxCell id="AkPceBVPTyrZocjIqjfr-1" value="Start" style="ellipse;whiteSpace=wrap;html=1;" vertex="1" parent="1">
          <mxGeometry x="360" y="100" width="140" height="70" as="geometry" />
        </mxCell>
        <mxCell id="AkPceBVPTyrZocjIqjfr-4" style="edgeStyle=orthogonalEdgeStyle;rounded=0;orthogonalLoop=1;jettySize=auto;html=1;entryX=0.5;entryY=0;entryDx=0;entryDy=0;" edge="1" parent="1" source="AkPceBVPTyrZocjIqjfr-2" target="AkPceBVPTyrZocjIqjfr-3">
          <mxGeometry relative="1" as="geometry" />
        </mxCell>
        <mxCell id="AkPceBVPTyrZocjIqjfr-8" style="edgeStyle=orthogonalEdgeStyle;rounded=0;orthogonalLoop=1;jettySize=auto;html=1;entryX=0;entryY=0.5;entryDx=0;entryDy=0;" edge="1" parent="1" source="AkPceBVPTyrZocjIqjfr-2" target="AkPceBVPTyrZocjIqjfr-6">
          <mxGeometry relative="1" as="geometry" />
        </mxCell>
        <mxCell id="AkPceBVPTyrZocjIqjfr-2" value="Is Staff Member&lt;div&gt;(Yes/No)&lt;/div&gt;" style="rhombus;whiteSpace=wrap;html=1;" vertex="1" parent="1">
          <mxGeometry x="370" y="240" width="120" height="70" as="geometry" />
        </mxCell>
        <mxCell id="AkPceBVPTyrZocjIqjfr-13" style="edgeStyle=orthogonalEdgeStyle;rounded=0;orthogonalLoop=1;jettySize=auto;html=1;entryX=0.5;entryY=0;entryDx=0;entryDy=0;" edge="1" parent="1" source="AkPceBVPTyrZocjIqjfr-3" target="AkPceBVPTyrZocjIqjfr-12">
          <mxGeometry relative="1" as="geometry" />
        </mxCell>
        <mxCell id="AkPceBVPTyrZocjIqjfr-3" value="login" style="rounded=0;whiteSpace=wrap;html=1;" vertex="1" parent="1">
          <mxGeometry x="370" y="380" width="120" height="40" as="geometry" />
        </mxCell>
        <mxCell id="AkPceBVPTyrZocjIqjfr-7" style="edgeStyle=orthogonalEdgeStyle;rounded=0;orthogonalLoop=1;jettySize=auto;html=1;entryX=1;entryY=0.5;entryDx=0;entryDy=0;" edge="1" parent="1" source="AkPceBVPTyrZocjIqjfr-6" target="AkPceBVPTyrZocjIqjfr-3">
          <mxGeometry relative="1" as="geometry">
            <Array as="points">
              <mxPoint x="610" y="400" />
            </Array>
          </mxGeometry>
        </mxCell>
        <mxCell id="AkPceBVPTyrZocjIqjfr-6" value="Registration" style="rounded=0;whiteSpace=wrap;html=1;" vertex="1" parent="1">
          <mxGeometry x="550" y="255" width="120" height="40" as="geometry" />
        </mxCell>
        <mxCell id="AkPceBVPTyrZocjIqjfr-9" value="yes" style="text;html=1;align=center;verticalAlign=middle;resizable=0;points=[];autosize=1;strokeColor=none;fillColor=none;" vertex="1" parent="1">
          <mxGeometry x="445" y="340" width="40" height="30" as="geometry" />
        </mxCell>
        <mxCell id="AkPceBVPTyrZocjIqjfr-11" value="no" style="text;html=1;align=center;verticalAlign=middle;resizable=0;points=[];autosize=1;strokeColor=none;fillColor=none;" vertex="1" parent="1">
          <mxGeometry x="480" y="240" width="40" height="30" as="geometry" />
        </mxCell>
        <mxCell id="AkPceBVPTyrZocjIqjfr-17" style="edgeStyle=orthogonalEdgeStyle;rounded=0;orthogonalLoop=1;jettySize=auto;html=1;entryX=0;entryY=0.5;entryDx=0;entryDy=0;" edge="1" parent="1" source="AkPceBVPTyrZocjIqjfr-12" target="AkPceBVPTyrZocjIqjfr-3">
          <mxGeometry relative="1" as="geometry">
            <Array as="points">
              <mxPoint x="350" y="515" />
              <mxPoint x="350" y="400" />
            </Array>
          </mxGeometry>
        </mxCell>
        <mxCell id="AkPceBVPTyrZocjIqjfr-20" style="edgeStyle=orthogonalEdgeStyle;rounded=0;orthogonalLoop=1;jettySize=auto;html=1;entryX=0.5;entryY=0;entryDx=0;entryDy=0;" edge="1" parent="1" source="AkPceBVPTyrZocjIqjfr-12" target="AkPceBVPTyrZocjIqjfr-19">
          <mxGeometry relative="1" as="geometry" />
        </mxCell>
        <mxCell id="AkPceBVPTyrZocjIqjfr-12" value="Valid User" style="rhombus;whiteSpace=wrap;html=1;" vertex="1" parent="1">
          <mxGeometry x="370" y="480" width="120" height="70" as="geometry" />
        </mxCell>
        <mxCell id="AkPceBVPTyrZocjIqjfr-18" value="no" style="text;html=1;align=center;verticalAlign=middle;resizable=0;points=[];autosize=1;strokeColor=none;fillColor=none;" vertex="1" parent="1">
          <mxGeometry x="340" y="490" width="40" height="30" as="geometry" />
        </mxCell>
        <mxCell id="AkPceBVPTyrZocjIqjfr-23" style="edgeStyle=orthogonalEdgeStyle;rounded=0;orthogonalLoop=1;jettySize=auto;html=1;entryX=0.5;entryY=0;entryDx=0;entryDy=0;" edge="1" parent="1" source="AkPceBVPTyrZocjIqjfr-19" target="AkPceBVPTyrZocjIqjfr-22">
          <mxGeometry relative="1" as="geometry" />
        </mxCell>
        <mxCell id="AkPceBVPTyrZocjIqjfr-19" value="Redirect to Admin Dashboard" style="rounded=0;whiteSpace=wrap;html=1;" vertex="1" parent="1">
          <mxGeometry x="370" y="610" width="120" height="40" as="geometry" />
        </mxCell>
        <mxCell id="AkPceBVPTyrZocjIqjfr-21" value="yes" style="text;html=1;align=center;verticalAlign=middle;resizable=0;points=[];autosize=1;strokeColor=none;fillColor=none;" vertex="1" parent="1">
          <mxGeometry x="440" y="570" width="40" height="30" as="geometry" />
        </mxCell>
        <mxCell id="AkPceBVPTyrZocjIqjfr-25" style="edgeStyle=orthogonalEdgeStyle;rounded=0;orthogonalLoop=1;jettySize=auto;html=1;entryX=0.5;entryY=0;entryDx=0;entryDy=0;" edge="1" parent="1" source="AkPceBVPTyrZocjIqjfr-22" target="AkPceBVPTyrZocjIqjfr-24">
          <mxGeometry relative="1" as="geometry" />
        </mxCell>
        <mxCell id="AkPceBVPTyrZocjIqjfr-22" value="Manages Customer account and more" style="rounded=0;whiteSpace=wrap;html=1;" vertex="1" parent="1">
          <mxGeometry x="370" y="740" width="120" height="40" as="geometry" />
        </mxCell>
        <mxCell id="AkPceBVPTyrZocjIqjfr-26" style="edgeStyle=orthogonalEdgeStyle;rounded=0;orthogonalLoop=1;jettySize=auto;html=1;" edge="1" parent="1" source="AkPceBVPTyrZocjIqjfr-24">
          <mxGeometry relative="1" as="geometry">
            <mxPoint x="430" y="990" as="targetPoint" />
          </mxGeometry>
        </mxCell>
        <mxCell id="AkPceBVPTyrZocjIqjfr-31" style="edgeStyle=orthogonalEdgeStyle;rounded=0;orthogonalLoop=1;jettySize=auto;html=1;entryX=0;entryY=0.5;entryDx=0;entryDy=0;" edge="1" parent="1" source="AkPceBVPTyrZocjIqjfr-24" target="AkPceBVPTyrZocjIqjfr-22">
          <mxGeometry relative="1" as="geometry">
            <mxPoint x="360" y="760" as="targetPoint" />
            <Array as="points">
              <mxPoint x="350" y="875" />
              <mxPoint x="350" y="760" />
            </Array>
          </mxGeometry>
        </mxCell>
        <mxCell id="AkPceBVPTyrZocjIqjfr-24" value="Sucess" style="rhombus;whiteSpace=wrap;html=1;" vertex="1" parent="1">
          <mxGeometry x="370" y="840" width="120" height="70" as="geometry" />
        </mxCell>
        <mxCell id="AkPceBVPTyrZocjIqjfr-34" style="edgeStyle=orthogonalEdgeStyle;rounded=0;orthogonalLoop=1;jettySize=auto;html=1;" edge="1" parent="1" source="AkPceBVPTyrZocjIqjfr-28" target="AkPceBVPTyrZocjIqjfr-33">
          <mxGeometry relative="1" as="geometry" />
        </mxCell>
        <mxCell id="AkPceBVPTyrZocjIqjfr-28" value="Logout" style="rounded=0;whiteSpace=wrap;html=1;" vertex="1" parent="1">
          <mxGeometry x="370" y="990" width="120" height="40" as="geometry" />
        </mxCell>
        <mxCell id="AkPceBVPTyrZocjIqjfr-30" value="yes" style="text;html=1;align=center;verticalAlign=middle;resizable=0;points=[];autosize=1;strokeColor=none;fillColor=none;" vertex="1" parent="1">
          <mxGeometry x="440" y="960" width="40" height="30" as="geometry" />
        </mxCell>
        <mxCell id="AkPceBVPTyrZocjIqjfr-32" value="no" style="text;html=1;align=center;verticalAlign=middle;resizable=0;points=[];autosize=1;strokeColor=none;fillColor=none;" vertex="1" parent="1">
          <mxGeometry x="350" y="840" width="40" height="30" as="geometry" />
        </mxCell>
        <mxCell id="AkPceBVPTyrZocjIqjfr-33" value="Stop" style="ellipse;whiteSpace=wrap;html=1;" vertex="1" parent="1">
          <mxGeometry x="360" y="1100" width="140" height="70" as="geometry" />
        </mxCell>
      </root>
    </mxGraphModel>
  </diagram>
</mxfile>
